<svg width="12" height="12" viewBox="0 0 12 12" fill="none" xmlns="http://www.w3.org/2000/svg">
<path d="M9.75 5.53149H6.46875V2.25024H5.53125V5.53149H2.25V6.46899H5.53125V9.75024H6.46875V6.46899H9.75V5.53149Z" fill="white"/>
<path d="M6 0.857143C8.82857 0.857143 11.1429 3.17143 11.1429 6C11.1429 8.82857 8.82857 11.1429 6 11.1429C3.17143 11.1429 0.857143 8.82857 0.857143 6C0.857143 3.17143 3.17143 0.857143 6 0.857143ZM6 0C2.7 0 0 2.7 0 6C0 9.3 2.7 12 6 12C9.3 12 12 9.3 12 6C12 2.7 9.3 0 6 0Z" fill="white"/>
</svg>
