<svg width="23" height="14" viewBox="0 0 23 14" fill="none" xmlns="http://www.w3.org/2000/svg">
<path opacity="0.4" fill-rule="evenodd" clip-rule="evenodd" d="M18.6603 0C19.9764 0 20.8301 1.14307 20.8301 2.90531V10.4591C20.8301 12.2214 19.9764 13.3644 18.6603 13.3644H2.1698C0.853684 13.3644 0 12.2214 0 10.4591V2.90531C0 1.14307 0.853684 0 2.1698 0H18.6603ZM18.5735 1.16213C19.4158 1.16213 19.9622 1.89369 19.9622 3.02153V10.3429C19.9622 11.4708 19.4158 12.2023 18.5735 12.2023H2.25662C1.41431 12.2023 0.867947 11.4708 0.867947 10.3429V3.02153C0.867947 1.89369 1.41431 1.16213 2.25662 1.16213H18.5735ZM22.9999 6.68222C22.9999 8.71594 21.698 9.00647 21.698 9.00647V4.35797C21.698 4.35797 22.9999 4.6485 22.9999 6.68222Z" fill="white"/>
<path fill-rule="evenodd" clip-rule="evenodd" d="M18.2263 2.32418C18.7527 2.32418 19.0942 2.78141 19.0942 3.48631V9.878C19.0942 10.5829 18.7527 11.0401 18.2263 11.0401H2.60373C2.07729 11.0401 1.73581 10.5829 1.73581 9.878V3.48631C1.73581 2.78141 2.07729 2.32418 2.60373 2.32418H18.2263Z" fill="white"/>
</svg>
