<svg width="22" height="18" viewBox="0 0 22 18" fill="none" xmlns="http://www.w3.org/2000/svg">
<path d="M8 12C5.33 12 0 13.34 0 16V18H16V16C16 13.34 10.67 12 8 12ZM2 16C2.22 15.28 5.31 14 8 14C10.7 14 13.8 15.29 14 16H2Z" fill="white"/>
<path d="M3.74 6H4C4 8.21 5.79 10 8 10C10.21 10 12 8.21 12 6H12.26C12.53 6 12.75 5.78 12.75 5.51V5.49C12.75 5.22 12.53 5 12.26 5H12C12 3.52 11.19 2.25 10 1.55V2.5C10 2.78 9.78 3 9.5 3C9.22 3 9 2.78 9 2.5V1.14C8.68 1.06 8.35 1 8 1C7.65 1 7.32 1.06 7 1.14V2.5C7 2.78 6.78 3 6.5 3C6.22 3 6 2.78 6 2.5V1.55C4.81 2.25 4 3.52 4 5H3.74C3.47 5 3.25 5.22 3.25 5.49V5.52C3.25 5.78 3.47 6 3.74 6ZM10 6C10 7.1 9.1 8 8 8C6.9 8 6 7.1 6 6H10Z" fill="white"/>
<path d="M20.98 3.23L21.91 2.4L21.16 1.1L19.97 1.49C19.83 1.38 19.67 1.29 19.5 1.22L19.25 0H17.75L17.5 1.22C17.33 1.29 17.17 1.38 17.02 1.49L15.84 1.1L15.09 2.4L16.02 3.23C16 3.4 16 3.58 16.02 3.75L15.09 4.6L15.84 5.9L17.04 5.52C17.17 5.62 17.32 5.7 17.47 5.77L17.75 7H19.25L19.52 5.78C19.68 5.71 19.82 5.63 19.96 5.53L21.15 5.91L21.9 4.61L20.97 3.76C21 3.57 20.99 3.4 20.98 3.23ZM18.5 4.75C17.81 4.75 17.25 4.19 17.25 3.5C17.25 2.81 17.81 2.25 18.5 2.25C19.19 2.25 19.75 2.81 19.75 3.5C19.75 4.19 19.19 4.75 18.5 4.75Z" fill="white"/>
<path d="M18.3999 7.79L17.5499 8.07C17.4499 7.99 17.3399 7.93 17.2199 7.88L17.0399 7H15.9699L15.7899 7.87C15.6699 7.92 15.5499 7.99 15.4499 8.06L14.6099 7.78L14.0699 8.71L14.7299 9.3C14.7199 9.43 14.7199 9.55 14.7299 9.67L14.0699 10.28L14.6099 11.21L15.4699 10.94C15.5699 11.01 15.6699 11.07 15.7799 11.12L15.9599 12H17.0299L17.2199 11.13C17.3299 11.08 17.4399 11.02 17.5399 10.95L18.3899 11.22L18.9299 10.29L18.2699 9.68C18.2799 9.55 18.2799 9.43 18.2699 9.31L18.9299 8.72L18.3999 7.79ZM16.4999 10.39C16.0099 10.39 15.6099 9.99 15.6099 9.5C15.6099 9.01 16.0099 8.61 16.4999 8.61C16.9899 8.61 17.3899 9.01 17.3899 9.5C17.3899 9.99 16.9899 10.39 16.4999 10.39Z" fill="white"/>
</svg>
