<svg width="14" height="13" viewBox="0 0 14 13" fill="none" xmlns="http://www.w3.org/2000/svg">
<path fill-rule="evenodd" clip-rule="evenodd" d="M6.76149 2.69986C8.72344 2.69998 10.6104 3.70939 12.0323 5.51947C12.1394 5.65921 12.3105 5.65745 12.416 5.51551L13.4395 4.13239C13.4929 4.0604 13.5227 3.96289 13.5222 3.86143C13.5218 3.75997 13.4912 3.66293 13.4371 3.59178C9.70507 -1.19726 3.8173 -1.19726 0.0852353 3.59178C0.0311726 3.66288 0.00050215 3.75989 6.32344e-06 3.86134C-0.000498357 3.9628 0.0292247 4.06035 0.0825791 4.13239L1.10641 5.51551C1.21179 5.65766 1.38307 5.65943 1.49008 5.51947C2.91217 3.70927 4.79933 2.69985 6.76149 2.69986ZM6.76149 7.19977C7.83946 7.19968 8.87896 7.73617 9.67801 8.70501C9.78609 8.84251 9.95633 8.83953 10.0617 8.69829L11.084 7.31516C11.1379 7.24261 11.1677 7.14419 11.167 7.04192C11.1662 6.93965 11.1348 6.84207 11.0799 6.771C8.64663 3.74031 4.8784 3.74031 2.44514 6.771C2.39018 6.84207 2.35882 6.9397 2.3581 7.042C2.35737 7.14431 2.38735 7.24272 2.4413 7.31516L3.46336 8.69829C3.5687 8.83953 3.73896 8.84251 3.84703 8.70501C4.64555 7.73681 5.68423 7.20037 6.76149 7.19977ZM8.7262 10.5007C8.78087 10.4288 8.81098 10.33 8.80942 10.2274C8.80785 10.1249 8.77475 10.0277 8.71793 9.95891C7.58853 8.67985 5.93442 8.67985 4.80503 9.95891C4.74817 10.0277 4.71501 10.1248 4.71339 10.2273C4.71177 10.3299 4.74183 10.4288 4.79647 10.5007L6.56521 12.8904C6.61705 12.9606 6.68773 13.0001 6.76148 13.0001C6.83523 13.0001 6.9059 12.9606 6.95774 12.8904L8.7262 10.5007Z" fill="white"/>
</svg>
