<svg width="18" height="18" viewBox="0 0 18 18" fill="none" xmlns="http://www.w3.org/2000/svg">
<path d="M12.8643 11.3206H12.0513L11.7631 11.0427C12.7717 9.86951 13.3789 8.34637 13.3789 6.68945C13.3789 2.99481 10.3841 0 6.68945 0C2.99481 0 0 2.99481 0 6.68945C0 10.3841 2.99481 13.3789 6.68945 13.3789C8.34637 13.3789 9.86951 12.7717 11.0427 11.7631L11.3206 12.0513V12.8643L16.4663 17.9998L17.9998 16.4663L12.8643 11.3206ZM6.68945 11.3206C4.12687 11.3206 2.05829 9.25202 2.05829 6.68945C2.05829 4.12687 4.12687 2.05829 6.68945 2.05829C9.25202 2.05829 11.3206 4.12687 11.3206 6.68945C11.3206 9.25202 9.25202 11.3206 6.68945 11.3206Z" fill="white"/>
</svg>
