<svg width="15" height="12" viewBox="0 0 15 12" fill="none" xmlns="http://www.w3.org/2000/svg">
<path fill-rule="evenodd" clip-rule="evenodd" d="M1.81818 6.49798C2.3696 6.49798 2.72727 6.96281 2.72727 7.67943V10.6331C2.72727 11.3497 2.3696 11.8145 1.81818 11.8145H0.909089C0.357672 11.8145 0 11.3497 0 10.6331V7.67943C0 6.96281 0.357672 6.49798 0.909089 6.49798H1.81818ZM14.0909 0C14.6423 0 15 0.464829 15 1.18145V10.6331C15 11.3497 14.6423 11.8145 14.0909 11.8145H13.1818C12.6304 11.8145 12.2727 11.3497 12.2727 10.6331V1.18145C12.2727 0.464829 12.6304 0 13.1818 0H14.0909ZM9.99998 2.3629C10.5514 2.3629 10.9091 2.82773 10.9091 3.54435V10.6331C10.9091 11.3497 10.5514 11.8145 9.99998 11.8145H9.09089C8.53947 11.8145 8.1818 11.3497 8.1818 10.6331V3.54435C8.1818 2.82773 8.53947 2.3629 9.09089 2.3629H9.99998ZM5.90908 4.7258C6.4605 4.7258 6.81817 5.19063 6.81817 5.90725V10.6331C6.81817 11.3497 6.4605 11.8145 5.90908 11.8145H4.99999C4.44857 11.8145 4.0909 11.3497 4.0909 10.6331V5.90725C4.0909 5.19063 4.44857 4.7258 4.99999 4.7258H5.90908Z" fill="white"/>
</svg>
