<svg width="16" height="16" viewBox="0 0 16 16" fill="none" xmlns="http://www.w3.org/2000/svg">
<path d="M14.5369 6.69425H13.9999V6.66659H7.99992V9.33325H11.7676C11.2179 10.8856 9.74092 11.9999 7.99992 11.9999C5.79092 11.9999 3.99992 10.2089 3.99992 7.99992C3.99992 5.79092 5.79092 3.99992 7.99992 3.99992C9.01959 3.99992 9.94725 4.38459 10.6536 5.01292L12.5393 3.12725C11.3486 2.01759 9.75592 1.33325 7.99992 1.33325C4.31825 1.33325 1.33325 4.31825 1.33325 7.99992C1.33325 11.6816 4.31825 14.6666 7.99992 14.6666C11.6816 14.6666 14.6666 11.6816 14.6666 7.99992C14.6666 7.55292 14.6206 7.11659 14.5369 6.69425Z" fill="#FFC107"/>
<path d="M2.10205 4.89692L4.29238 6.50325C4.88505 5.03592 6.32038 3.99992 8.00005 3.99992C9.01972 3.99992 9.94738 4.38458 10.6537 5.01292L12.5394 3.12725C11.3487 2.01759 9.75605 1.33325 8.00005 1.33325C5.43938 1.33325 3.21872 2.77892 2.10205 4.89692Z" fill="#FF3D00"/>
<path d="M7.99994 14.6667C9.72194 14.6667 11.2866 14.0077 12.4696 12.936L10.4063 11.19C9.71445 11.7161 8.86909 12.0007 7.99994 12C6.26594 12 4.79361 10.8943 4.23894 9.35132L2.06494 11.0263C3.16827 13.1853 5.40894 14.6667 7.99994 14.6667Z" fill="#4CAF50"/>
<path d="M14.537 6.69441H14V6.66675H8V9.33341H11.7677C11.5047 10.0722 11.0311 10.7178 10.4053 11.1904L10.4063 11.1897L12.4697 12.9357C12.3237 13.0684 14.6667 11.3334 14.6667 8.00008C14.6667 7.55308 14.6207 7.11675 14.537 6.69441Z" fill="#1976D2"/>
</svg>
